<?xml version="1.0" encoding="UTF-8"?>
<svg version="1.1" viewBox="0 0 1200 1172" width="1280" height="1280" xmlns="http://www.w3.org/2000/svg">
<path transform="translate(580)" d="m0 0h39l27 3 24 5 24 7 25 10 16 8 16 9 15 10 12 9 11 9 13 12 13 13 9 11 11 14 10 15 10 17 8 16 9 21 8 24 2 9 11-1h31l29 3 29 6 22 7 25 10 20 10 18 11 14 10 10 8 13 11 22 22 9 11 10 13 10 15 12 21 10 21 9 24 7 25 4 20 3 27v39l-3 26-6 28-6 19-7 19-12 25-9 16-11 16-12 16-13 14-7 8-15 14-14 11-15 11-6 4h-2l9 23 7 25 5 28 2 22v30l-2 23-5 28-7 25-8 22-11 24-12 21-14 20-9 11-12 14-17 17-11 9-15 12-15 10-21 12-21 10-25 9-22 6-22 4-17 2-17 1h-16l-27-2-25-4-20-5-30-10-24-11-20-11-18-12-12-9-5-4-4 2-17 13-13 9-15 9-21 11-25 10-23 7-22 5-21 3-11 1h-39l-28-3-28-6-26-8-24-10-23-12-16-10-14-10-10-8-14-12-18-18-9-11-13-17-12-19-12-22-8-19-10-30-5-22-4-29-1-17v-17l2-27 4-24 7-28 8-24-16-10-17-13-10-9-8-7-15-15-9-11-10-13-10-15-11-19-12-25-9-25-6-22-4-21-3-26v-40l3-27 5-24 6-21 8-22 14-29 11-18 10-14 11-14 12-13 17-17 11-9 13-10 20-13 22-12 21-9 20-7 22-6 20-4 27-3h40l4-17 7-21 9-21 11-21 12-19 13-17 12-14 23-23 11-9 19-14 18-11 23-12 19-8 27-9 26-6 22-3z" fill="#fff"/>
<path transform="translate(580)" d="m0 0h39l27 3 24 5 24 7 25 10 16 8 16 9 15 10 12 9 11 9 13 12 13 13 9 11 11 14 10 15 10 17 8 16 9 21 8 24 2 9 11-1h31l29 3 29 6 22 7 25 10 20 10 18 11 14 10 10 8 13 11 22 22 9 11 10 13 10 15 12 21 10 21 9 24 7 25 4 20 3 27v39l-3 26-6 28-6 19-7 19-12 25-9 16-11 16-12 16-13 14-7 8-15 14-14 11-15 11-6 4h-2l9 23 7 25 5 28 2 22v30l-2 23-5 28-7 25-8 22-11 24-12 21-14 20-9 11-12 14-17 17-11 9-15 12-15 10-21 12-21 10-25 9-22 6-22 4-17 2-17 1h-16l-27-2-25-4-20-5-30-10-24-11-20-11-18-12-12-9-5-4-4 2-17 13-13 9-15 9-21 11-25 10-23 7-22 5-21 3-11 1h-39l-28-3-28-6-26-8-24-10-23-12-16-10-14-10-10-8-14-12-18-18-9-11-13-17-12-19-12-22-8-19-10-30-5-22-4-29-1-17v-17l2-27 4-24 7-28 8-24-16-10-17-13-10-9-8-7-15-15-9-11-10-13-10-15-11-19-12-25-9-25-6-22-4-21-3-26v-40l3-27 5-24 6-21 8-22 14-29 11-18 10-14 11-14 12-13 17-17 11-9 13-10 20-13 22-12 21-9 20-7 22-6 20-4 27-3h40l4-17 7-21 9-21 11-21 12-19 13-17 12-14 23-23 11-9 19-14 18-11 23-12 19-8 27-9 26-6 22-3zm0 51-23 3-23 5-24 8-24 11-19 11-14 10-14 11-16 15-11 12-13 17-12 19-9 17-8 20-6 19-5 24-4 29-17-2-25-3h-40l-23 3-23 5-24 8-20 9-15 8-21 14-11 9-20 18-7 8-13 16-11 17-10 18-9 21-7 21-5 22-3 22v44l4 27 6 24 8 22 10 21 10 17 10 14 9 11 9 10 15 15 14 11 16 11 16 9 28 14h2l-17 34-9 24-5 17-5 26-2 23v21l2 22 4 22 7 25 10 24 10 19 12 18 11 14 9 10 16 16 14 11 14 10 19 11 23 11 27 9 22 5 24 3h39l23-3 26-6 23-8 25-12 19-12 13-10 14-12 22-22 4-5 4 2 24 24 11 9 15 11 20 12 25 12 30 10 24 5 14 2 15 1h20l22-2 22-4 21-6 16-6 25-12 19-12 13-10 13-11 18-18 11-14 11-15 12-21 9-19 7-19 6-23 4-24 1-11v-33l-3-25-6-25-6-18-8-18-15-29v-3l29-15 19-12 12-9 11-9 15-14 10-11 13-17 10-15 10-18 11-26 7-24 4-20 2-17v-39l-4-28-6-23-7-20-9-20-11-19-11-16-13-16-14-15-8-7-12-10-17-12-23-13-21-9-21-7-23-5-24-3h-33l-25 3-26 5-3-22-5-24-8-26-10-23-11-20-8-12-12-16-14-15-12-12-11-9-18-13-23-13-23-10-26-8-20-4-18-2z" fill="#EB1C23"/>
<path transform="translate(509,330)" d="m0 0h190v191h190v191h-190v190h-191v-190h-190v-191h190v-190z" fill="#EB1C23"/>
</svg>
