<svg xmlns="http://www.w3.org/2000/svg" xmlns:xlink="http://www.w3.org/1999/xlink" width="529" zoomAndPan="magnify" viewBox="0 0 396.75 68.249996" height="90" preserveAspectRatio="xMidYMid meet" version="1.0"><defs><g/></defs><g fill="#ef233c" fill-opacity="1"><g transform="translate(63.343668, 47.926273)"><g><path d="M 2.03125 -21.921875 L 0.21875 -21.921875 L 2.03125 -30.015625 L 10.890625 -30.015625 C 12.117188 -30.015625 13.203125 -29.960938 14.140625 -29.859375 C 15.085938 -29.753906 15.921875 -29.582031 16.640625 -29.34375 C 17.367188 -29.101562 18.007812 -28.785156 18.5625 -28.390625 C 19.113281 -28.003906 19.644531 -27.523438 20.15625 -26.953125 C 21.84375 -25.003906 22.6875 -22.363281 22.6875 -19.03125 C 22.6875 -14.320312 21.210938 -11.203125 18.265625 -9.671875 L 22.640625 0 L 13.359375 0 L 10.578125 -8.640625 L 10.125 -8.640625 L 10.125 0 L 2.03125 0 Z M 10.125 -22.1875 L 10.125 -15.171875 C 10.25 -15.140625 10.367188 -15.125 10.484375 -15.125 C 10.609375 -15.125 10.695312 -15.125 10.75 -15.125 C 11.832031 -15.125 12.664062 -15.4375 13.25 -16.0625 C 13.832031 -16.695312 14.125 -17.582031 14.125 -18.71875 C 14.125 -21.03125 12.984375 -22.1875 10.703125 -22.1875 Z M 10.125 -22.1875 "/></g></g></g><g fill="#ef233c" fill-opacity="1"><g transform="translate(87.373916, 47.926273)"><g><path d="M 16.921875 -0.21875 C 15.992188 0.0195312 15.140625 0.191406 14.359375 0.296875 C 13.578125 0.398438 12.765625 0.453125 11.921875 0.453125 C 9.847656 0.453125 8.097656 0.0976562 6.671875 -0.609375 C 5.253906 -1.316406 4.035156 -2.429688 3.015625 -3.953125 C 1.546875 -6.148438 0.8125 -8.597656 0.8125 -11.296875 C 0.8125 -12.859375 1.050781 -14.3125 1.53125 -15.65625 C 2.007812 -17.007812 2.675781 -18.179688 3.53125 -19.171875 C 4.382812 -20.160156 5.378906 -20.9375 6.515625 -21.5 C 7.660156 -22.070312 8.910156 -22.359375 10.265625 -22.359375 C 13.316406 -22.359375 15.640625 -20.976562 17.234375 -18.21875 C 18.523438 -15.914062 19.171875 -13.28125 19.171875 -10.3125 C 19.171875 -10.25 19.171875 -10.101562 19.171875 -9.875 C 19.171875 -9.65625 19.15625 -9.425781 19.125 -9.1875 L 8.375 -9.1875 C 8.789062 -8.039062 9.359375 -7.226562 10.078125 -6.75 C 10.796875 -6.269531 11.832031 -6.03125 13.1875 -6.03125 C 13.96875 -6.03125 14.835938 -6.113281 15.796875 -6.28125 C 16.753906 -6.445312 17.625 -6.675781 18.40625 -6.96875 Z M 12.15625 -13.546875 C 12 -14.597656 11.765625 -15.351562 11.453125 -15.8125 C 11.140625 -16.28125 10.695312 -16.515625 10.125 -16.515625 C 9.582031 -16.515625 9.125 -16.242188 8.75 -15.703125 C 8.375 -15.160156 8.15625 -14.441406 8.09375 -13.546875 Z M 12.15625 -13.546875 "/></g></g></g><g fill="#ef233c" fill-opacity="1"><g transform="translate(107.219123, 47.926273)"><g><path d="M 1.890625 -23.40625 L 0.21875 -23.40625 L 1.890625 -30.734375 L 9.265625 -30.734375 L 9.265625 -7.203125 L 10.84375 -7.203125 L 9.265625 0 L 1.890625 0 Z M 1.890625 -23.40625 "/></g></g></g><g fill="#ef233c" fill-opacity="1"><g transform="translate(118.289239, 47.926273)"><g><path d="M 9.453125 -0.09375 C 8.066406 -0.15625 7.003906 -0.296875 6.265625 -0.515625 C 5.535156 -0.742188 4.84375 -1.15625 4.1875 -1.75 C 3.070312 -2.738281 2.226562 -4.03125 1.65625 -5.625 C 1.09375 -7.21875 0.8125 -9.046875 0.8125 -11.109375 C 0.8125 -12.765625 1.003906 -14.265625 1.390625 -15.609375 C 1.785156 -16.960938 2.34375 -18.117188 3.0625 -19.078125 C 3.78125 -20.035156 4.65625 -20.769531 5.6875 -21.28125 C 6.726562 -21.789062 7.878906 -22.046875 9.140625 -22.046875 C 9.828125 -22.046875 10.445312 -21.96875 11 -21.8125 C 11.550781 -21.664062 12.128906 -21.429688 12.734375 -21.109375 L 12.734375 -21.921875 L 19.84375 -21.921875 L 19.84375 -7.203125 L 21.421875 -7.203125 L 19.84375 0 L 12.46875 0 L 12.46875 -6.609375 L 10.984375 0 Z M 12.46875 -11.4375 C 12.46875 -11.96875 12.457031 -12.40625 12.4375 -12.75 C 12.425781 -13.101562 12.394531 -13.390625 12.34375 -13.609375 C 12.300781 -13.835938 12.25 -14.019531 12.1875 -14.15625 C 12.132812 -14.289062 12.046875 -14.414062 11.921875 -14.53125 C 11.597656 -14.894531 11.191406 -15.078125 10.703125 -15.078125 C 10.015625 -15.078125 9.460938 -14.722656 9.046875 -14.015625 C 8.628906 -13.304688 8.421875 -12.382812 8.421875 -11.25 C 8.421875 -8.519531 9.484375 -7.15625 11.609375 -7.15625 C 11.671875 -7.15625 11.789062 -7.15625 11.96875 -7.15625 C 12.144531 -7.15625 12.3125 -7.171875 12.46875 -7.203125 Z M 12.46875 -11.4375 "/></g></g></g><g fill="#ef233c" fill-opacity="1"><g transform="translate(139.934465, 47.926273)"><g><path d="M -0.40625 -21.921875 L 7.609375 -21.921875 L 9.40625 -12.015625 L 11.46875 -21.921875 L 17.734375 -21.921875 L 19.75 -12.015625 L 21.59375 -21.921875 L 29.609375 -21.921875 L 23.84375 0 L 16.328125 0 L 14.578125 -9.359375 L 12.734375 0 L 5.3125 0 Z M -0.40625 -21.921875 "/></g></g></g><g fill="#ef233c" fill-opacity="1"><g transform="translate(169.094769, 47.926273)"><g><path d="M 9.453125 -0.09375 C 8.066406 -0.15625 7.003906 -0.296875 6.265625 -0.515625 C 5.535156 -0.742188 4.84375 -1.15625 4.1875 -1.75 C 3.070312 -2.738281 2.226562 -4.03125 1.65625 -5.625 C 1.09375 -7.21875 0.8125 -9.046875 0.8125 -11.109375 C 0.8125 -12.765625 1.003906 -14.265625 1.390625 -15.609375 C 1.785156 -16.960938 2.34375 -18.117188 3.0625 -19.078125 C 3.78125 -20.035156 4.65625 -20.769531 5.6875 -21.28125 C 6.726562 -21.789062 7.878906 -22.046875 9.140625 -22.046875 C 9.828125 -22.046875 10.445312 -21.96875 11 -21.8125 C 11.550781 -21.664062 12.128906 -21.429688 12.734375 -21.109375 L 12.734375 -21.921875 L 19.84375 -21.921875 L 19.84375 -7.203125 L 21.421875 -7.203125 L 19.84375 0 L 12.46875 0 L 12.46875 -6.609375 L 10.984375 0 Z M 12.46875 -11.4375 C 12.46875 -11.96875 12.457031 -12.40625 12.4375 -12.75 C 12.425781 -13.101562 12.394531 -13.390625 12.34375 -13.609375 C 12.300781 -13.835938 12.25 -14.019531 12.1875 -14.15625 C 12.132812 -14.289062 12.046875 -14.414062 11.921875 -14.53125 C 11.597656 -14.894531 11.191406 -15.078125 10.703125 -15.078125 C 10.015625 -15.078125 9.460938 -14.722656 9.046875 -14.015625 C 8.628906 -13.304688 8.421875 -12.382812 8.421875 -11.25 C 8.421875 -8.519531 9.484375 -7.15625 11.609375 -7.15625 C 11.671875 -7.15625 11.789062 -7.15625 11.96875 -7.15625 C 12.144531 -7.15625 12.3125 -7.171875 12.46875 -7.203125 Z M 12.46875 -11.4375 "/></g></g></g><g fill="#ef233c" fill-opacity="1"><g transform="translate(190.739995, 47.926273)"><g><path d="M 1.890625 -14.53125 L 0.21875 -14.53125 L 1.890625 -21.921875 L 9.265625 -21.921875 L 9.265625 -15.296875 L 10.75 -21.921875 C 11.65625 -21.921875 12.363281 -21.921875 12.875 -21.921875 C 13.382812 -21.921875 13.78125 -21.910156 14.0625 -21.890625 C 14.34375 -21.878906 14.570312 -21.859375 14.75 -21.828125 C 14.9375 -21.796875 15.148438 -21.75 15.390625 -21.6875 C 16.015625 -21.539062 16.601562 -21.253906 17.15625 -20.828125 C 17.71875 -20.410156 18.164062 -19.890625 18.5 -19.265625 C 18.675781 -18.960938 18.816406 -18.675781 18.921875 -18.40625 C 19.023438 -18.132812 19.097656 -17.796875 19.140625 -17.390625 C 19.191406 -16.984375 19.222656 -16.453125 19.234375 -15.796875 C 19.253906 -15.140625 19.265625 -14.253906 19.265625 -13.140625 L 19.265625 -7.203125 L 20.828125 -7.203125 L 19.265625 0 L 11.875 0 L 11.875 -9.71875 C 11.875 -10.5 11.875 -11.113281 11.875 -11.5625 C 11.875 -12.007812 11.863281 -12.367188 11.84375 -12.640625 C 11.832031 -12.910156 11.804688 -13.117188 11.765625 -13.265625 C 11.722656 -13.421875 11.671875 -13.570312 11.609375 -13.71875 C 11.304688 -14.289062 10.691406 -14.578125 9.765625 -14.578125 C 9.703125 -14.578125 9.632812 -14.578125 9.5625 -14.578125 C 9.488281 -14.578125 9.390625 -14.5625 9.265625 -14.53125 L 9.265625 0 L 1.890625 0 Z M 1.890625 -14.53125 "/></g></g></g><path stroke-linecap="butt" transform="matrix(0.259649, 0, 0, 0.259649, 216.014272, 2.227979)" fill="none" stroke-linejoin="miter" d="M 7.783127 91.584397 L 0.847694 91.584397 L 7.783127 60.397511 L 39.015146 60.397511 L 60.513487 104.236674 L 60.513487 60.397511 L 91.700373 60.397511 L 91.700373 175.998105 L 64.319701 175.998105 L 39.015146 126.457142 L 39.015146 175.998105 L 7.783127 175.998105 Z M 164.815793 175.155623 C 161.235243 176.058282 157.940536 176.705188 154.916627 177.096341 C 151.922806 177.517582 148.808631 177.728202 145.559056 177.728202 C 137.615653 177.728202 130.875795 176.374213 125.384617 173.666234 C 119.908482 170.943212 115.199608 166.640535 111.242951 160.773248 C 105.601329 152.333382 102.78804 142.915634 102.78804 132.504961 C 102.78804 126.487231 103.705744 120.890742 105.541152 115.70045 C 107.391604 110.480069 109.964183 105.966772 113.243846 102.160557 C 116.538553 98.354343 120.389901 95.345478 124.782844 93.149007 C 129.190831 90.952535 133.98997 89.8543 139.180263 89.8543 C 150.975013 89.8543 159.926387 95.164946 166.049427 105.801284 C 171.014054 114.707525 173.496368 124.877488 173.496368 136.311175 C 173.496368 136.53684 173.496368 137.078436 173.496368 137.966051 C 173.496368 138.838622 173.436191 139.726237 173.33088 140.628897 L 131.898809 140.628897 C 133.508552 145.02184 135.689979 148.151059 138.458135 150.016555 C 141.256379 151.851963 145.243126 152.769667 150.433418 152.769667 C 153.457327 152.769667 156.812212 152.453736 160.498071 151.836919 C 164.198975 151.190013 167.538815 150.287353 170.532636 149.12894 Z M 146.461716 123.824386 C 145.859943 119.792506 144.957283 116.888952 143.753737 115.113721 C 142.535147 113.308402 140.835138 112.405743 138.668756 112.405743 C 136.577594 112.405743 134.802364 113.443801 133.343064 115.534962 C 131.898809 117.596035 131.071371 120.349146 130.845707 123.824386 Z M 184.25306 144.645731 C 188.179629 147.293533 191.399115 149.204162 193.941606 150.362575 C 196.484097 151.520988 198.740746 152.092672 200.711552 152.092672 C 203.585018 152.092672 205.029273 150.994437 205.029273 148.797965 C 205.029273 147.744862 204.532811 146.79707 203.55493 145.954588 C 202.562004 145.082017 200.576153 143.878471 197.582333 142.358994 C 186.013247 136.717372 180.236226 128.473082 180.236226 117.611079 C 180.236226 113.549112 180.958353 109.818119 182.387564 106.433146 C 183.861908 103.018084 185.892892 100.099485 188.480516 97.677349 C 191.083184 95.255212 194.167271 93.344583 197.74782 91.960505 C 201.328369 90.546338 205.269983 89.8543 209.557615 89.8543 C 211.393023 89.8543 213.168253 89.974654 214.883306 90.230408 C 216.643492 90.456073 218.433767 90.787048 220.269175 91.238377 C 222.119627 91.689707 224.060345 92.336613 226.06124 93.149007 C 228.092224 93.9614 230.378961 94.954326 232.906408 96.112739 L 227.746204 120.529678 C 221.15679 116.723464 216.177118 114.812835 212.807189 114.812835 C 211.90453 114.812835 211.137269 115.113721 210.490363 115.70045 C 209.873546 116.272134 209.557615 117.009306 209.557615 117.942054 C 209.557615 118.513739 209.617793 118.980113 209.723103 119.341177 C 209.843457 119.672152 210.264699 120.123482 211.00187 120.650033 C 211.754087 121.16154 212.942588 121.883668 214.552331 122.816416 C 216.192163 123.719075 218.493944 125.042976 221.487765 126.788118 C 230.740025 131.873099 235.373677 139.425351 235.373677 149.47496 C 235.373677 153.642238 234.576328 157.433408 232.996674 160.84847 C 231.447108 164.233443 229.265681 167.212219 226.437348 169.784799 C 223.624059 172.312245 220.269175 174.283052 216.372695 175.66713 C 212.506303 177.051208 208.263803 177.728202 203.630151 177.728202 C 195.566393 177.728202 186.961039 175.892795 177.814089 172.191891 Z M 244.370183 85.867553 L 237.931212 85.867553 L 244.370183 57.599267 L 272.803958 57.599267 L 272.803958 119.852684 L 283.00401 91.584397 L 312.490887 91.584397 L 296.70939 129.872204 L 315.966126 175.998105 L 284.222601 175.998105 L 272.803958 142.358994 L 272.803958 175.998105 L 244.370183 175.998105 Z M 350.252143 175.66713 C 344.956541 175.441465 340.879529 174.884825 338.036151 174.012254 C 335.207818 173.139683 332.529928 171.544985 329.987437 169.228159 C 325.699805 165.421944 322.465275 160.457317 320.253759 154.334277 C 318.087376 148.211236 317.004185 141.155448 317.004185 133.181956 C 317.004185 126.833251 317.741357 121.05623 319.245789 115.865938 C 320.735178 110.645557 322.871472 106.192437 325.639627 102.506577 C 328.422828 98.805673 331.807801 95.97734 335.794547 94.036622 C 339.766249 92.065815 344.174236 91.07289 349.033553 91.07289 C 351.711443 91.07289 354.103491 91.373776 356.22474 91.960505 C 358.376079 92.532189 360.602639 93.449893 362.904421 94.713617 L 362.904421 91.584397 L 390.285092 91.584397 L 390.285092 148.286458 L 396.378044 148.286458 L 390.285092 175.998105 L 361.896451 175.998105 L 361.896451 150.528063 L 356.134474 175.998105 Z M 361.896451 131.993454 C 361.896451 129.902293 361.851318 128.202284 361.776096 126.878384 C 361.715919 125.554483 361.595564 124.441203 361.430077 123.568632 C 361.264589 122.696061 361.069013 122.004022 360.843348 121.492515 C 360.617683 120.965964 360.256619 120.469501 359.775201 120.018171 C 358.511478 118.634093 356.961912 117.942054 355.126505 117.942054 C 352.478703 117.942054 350.327365 119.296044 348.687533 122.004022 C 347.092835 124.712001 346.280441 128.262461 346.280441 132.670449 C 346.280441 143.186432 350.387542 148.451946 358.601744 148.451946 C 358.827409 148.451946 359.278738 148.451946 359.955733 148.451946 C 360.647772 148.451946 361.309722 148.391768 361.896451 148.286458 Z M 404.517024 120.018171 L 398.078053 120.018171 L 404.517024 91.584397 L 432.950798 91.584397 L 432.950798 99.196825 C 434.665851 96.42867 436.772057 94.41273 439.25437 93.149007 C 441.736684 91.885283 444.895992 91.238377 448.732295 91.238377 C 449.288935 91.238377 449.86062 91.238377 450.41726 91.238377 C 451.019033 91.238377 451.726116 91.358732 452.538509 91.584397 L 446.28007 120.018171 C 444.549973 119.085423 443.060585 118.619049 441.781817 118.619049 C 440.412783 118.619049 439.073838 118.950024 437.764982 119.59693 C 436.501259 120.213748 435.523378 121.041185 434.846383 122.094288 C 434.515408 122.681017 434.184433 123.327923 433.883546 124.035006 C 433.597704 124.712001 433.402128 125.599616 433.281773 126.697852 C 433.176463 127.811132 433.086197 129.180165 433.02602 130.850085 C 432.980887 132.520005 432.950798 134.611167 432.950798 137.153658 L 432.950798 175.998105 L 404.517024 175.998105 Z M 404.517024 120.018171 " stroke="#ef233c" stroke-width="4.658056" stroke-opacity="1" stroke-miterlimit="4"/></svg>